<svg xmlns="http://www.w3.org/2000/svg" version="1.1" width="146px" height="39px" style="shape-rendering:geometricPrecision; text-rendering:geometricPrecision; image-rendering:optimizeQuality; fill-rule:evenodd; clip-rule:evenodd" xmlns:xlink="http://www.w3.org/1999/xlink">
   <g><path style="opacity:0.648" fill="#99bcc9" d="M 39.5,-0.5 C 40.8333,-0.5 42.1667,-0.5 43.5,-0.5C 45.7255,12.5196 48.0588,25.5196 50.5,38.5C 48.1667,38.5 45.8333,38.5 43.5,38.5C 29.1061,34.754 14.4394,31.754 -0.5,29.5C -0.5,28.1667 -0.5,26.8333 -0.5,25.5C 1.93244,21.4765 4.26577,17.3098 6.5,13C 17.7207,8.76699 28.7207,4.26699 39.5,-0.5 Z M 37.5,3.5 C 38.3764,3.36912 39.0431,3.70245 39.5,4.5C 37.7526,9.33198 36.0859,14.1653 34.5,19C 30.9975,19.8337 27.4975,20.6671 24,21.5C 19.6131,19.7235 15.4464,17.5568 11.5,15C 20.109,10.8597 28.7756,7.02634 37.5,3.5 Z M 41.5,7.5 C 43.4101,14.6309 44.5768,21.9642 45,29.5C 42.5,26.3333 40,23.1667 37.5,20C 39.0636,15.9142 40.3969,11.7476 41.5,7.5 Z M 7.5,16.5 C 10.9432,18.1044 14.2766,19.9377 17.5,22C 12.9736,23.9046 8.30689,24.9046 3.5,25C 5.24647,22.3413 6.5798,19.508 7.5,16.5 Z M 41.5,31.5 C 36.7013,29.267 32.0346,26.767 27.5,24C 30.0529,23.2389 32.5529,22.4056 35,21.5C 37.4367,24.7196 39.6033,28.053 41.5,31.5 Z M 20.5,24.5 C 26.4235,26.7951 32.0901,29.6284 37.5,33C 28.1091,31.9897 18.7757,30.3231 9.5,28C 13.1735,26.6393 16.8402,25.4726 20.5,24.5 Z"/></g>
   <g><path style="opacity:0.832" fill="#2b6373" d="M 68.5,6.5 C 73.777,5.93118 78.777,6.76451 83.5,9C 86.5562,11.8727 86.0562,13.3727 82,13.5C 79.8955,13.2114 78.0621,12.3781 76.5,11C 73.975,10.1041 71.8083,10.6041 70,12.5C 69.3333,16.8333 69.3333,21.1667 70,25.5C 75.7261,28.9639 78.8927,27.2973 79.5,20.5C 77.8333,20.5 76.1667,20.5 74.5,20.5C 74.5,19.1667 74.5,17.8333 74.5,16.5C 78.1667,16.5 81.8333,16.5 85.5,16.5C 85.9653,30.2813 79.632,34.7813 66.5,30C 65.2986,29.0975 64.4652,27.9308 64,26.5C 63.7744,23.905 63.2744,21.405 62.5,19C 62.3943,13.7037 64.3943,9.53704 68.5,6.5 Z"/></g>
   <g><path style="opacity:0.786" fill="#2b6373" d="M 88.5,6.5 C 90.5,6.5 92.5,6.5 94.5,6.5C 94.5,14.8333 94.5,23.1667 94.5,31.5C 92.5,31.5 90.5,31.5 88.5,31.5C 88.5,23.1667 88.5,14.8333 88.5,6.5 Z"/></g>
   <g><path style="opacity:0.832" fill="#2b6373" d="M 102.5,12.5 C 111.82,10.4748 116.486,14.1414 116.5,23.5C 112.116,23.1744 107.783,23.5078 103.5,24.5C 104.212,26.0459 105.378,27.0459 107,27.5C 109.639,26.0056 112.472,25.3389 115.5,25.5C 115.548,28.2919 114.215,30.1253 111.5,31C 98.3416,32.2746 94.5083,26.7746 100,14.5C 100.995,13.9341 101.828,13.2674 102.5,12.5 Z M 104.5,16.5 C 107.022,16.1281 109.022,16.9614 110.5,19C 108.167,19.6667 105.833,19.6667 103.5,19C 104.252,18.3292 104.586,17.4959 104.5,16.5 Z"/></g>
   <g><path style="opacity:0.832" fill="#2b6373" d="M 123.5,12.5 C 132.82,10.4748 137.486,14.1414 137.5,23.5C 133.116,23.1744 128.783,23.5078 124.5,24.5C 125.212,26.0459 126.378,27.0459 128,27.5C 130.639,26.0056 133.472,25.3389 136.5,25.5C 136.548,28.2919 135.215,30.1253 132.5,31C 119.342,32.2746 115.508,26.7746 121,14.5C 121.995,13.9341 122.828,13.2674 123.5,12.5 Z M 125.5,16.5 C 128.022,16.1281 130.022,16.9614 131.5,19C 129.167,19.6667 126.833,19.6667 124.5,19C 125.252,18.3292 125.586,17.4959 125.5,16.5 Z"/></g>
   <g><path style="opacity:0.876" fill="#2b6373" d="M 145.5,26.5 C 145.5,28.1667 145.5,29.8333 145.5,31.5C 143.5,31.5 141.5,31.5 139.5,31.5C 139.5,29.8333 139.5,28.1667 139.5,26.5C 141.5,26.5 143.5,26.5 145.5,26.5 Z"/></g>
</svg>
